ffmpeg version 3.4.8-0ubuntu0.2 Copyright (c) 2000-2020 the FFmpeg developers
  built with gcc 7 (Ubuntu 7.5.0-3ubuntu1~18.04)
  configuration: --prefix=/usr --extra-version=0ubuntu0.2 --toolchain=hardened --libdir=/usr/lib/x86_64-linux-gnu --incdir=/usr/include/x86_64-linux-gnu --enable-gpl --disable-stripping --enable-avresample --enable-avisynth --enable-gnutls --enable-ladspa --enable-libass --enable-libbluray --enable-libbs2b --enable-libcaca --enable-libcdio --enable-libflite --enable-libfontconfig --enable-libfreetype --enable-libfribidi --enable-libgme --enable-libgsm --enable-libmp3lame --enable-libmysofa --enable-libopenjpeg --enable-libopenmpt --enable-libopus --enable-libpulse --enable-librubberband --enable-librsvg --enable-libshine --enable-libsnappy --enable-libsoxr --enable-libspeex --enable-libssh --enable-libtheora --enable-libtwolame --enable-libvorbis --enable-libvpx --enable-libwavpack --enable-libwebp --enable-libx265 --enable-libxml2 --enable-libxvid --enable-libzmq --enable-libzvbi --enable-omx --enable-openal --enable-opengl --enable-sdl2 --enable-libdc1394 --enable-libdrm --enable-libiec61883 --enable-chromaprint --enable-frei0r --enable-libopencv --enable-libx264 --enable-shared
  libavutil      55. 78.100 / 55. 78.100
  libavcodec     57.107.100 / 57.107.100
  libavformat    57. 83.100 / 57. 83.100
  libavdevice    57. 10.100 / 57. 10.100
  libavfilter     6.107.100 /  6.107.100
  libavresample   3.  7.  0 /  3.  7.  0
  libswscale      4.  8.100 /  4.  8.100
  libswresample   2.  9.100 /  2.  9.100
  libpostproc    54.  7.100 / 54.  7.100
[rawvideo @ 0x55c345c06a20] Estimating duration from bitrate, this may be inaccurate
Input #0, rawvideo, from '../../SVC-Encoder-20220109T061506Z-001/SVC-Encoder/Dataset/RollerCoaster/6f_2x2/tile_yuv/f1_t3_480x480.yuv':
  Duration: 00:00:10.00, start: 0.000000, bitrate: 82944 kb/s
    Stream #0:0: Video: rawvideo (I420 / 0x30323449), yuv420p, 480x480, 82944 kb/s, 30 tbr, 30 tbn, 30 tbc
Stream mapping:
  Stream #0:0 -> #0:0 (rawvideo (native) -> h264 (libx264))
Press [q] to stop, [?] for help
[libx264 @ 0x55c345c13c60] using cpu capabilities: MMX2 SSE2Fast LZCNT SSSE3 SSE4.2 AVX
[libx264 @ 0x55c345c13c60] profile High, level 3.0
Output #0, rawvideo, to 'RollerCoaster_f1_t3_480x480_x264_QP_40.h264':
  Metadata:
    encoder         : Lavf57.83.100
    Stream #0:0: Video: h264 (libx264), yuv420p, 480x480, q=-1--1, 30 fps, 30 tbn, 30 tbc
    Metadata:
      encoder         : Lavc57.107.100 libx264
    Side data:
      cpb: bitrate max/min/avg: 0/0/0 buffer size: 0 vbv_delay: -1
frame=  114 fps=0.0 q=46.0 PSNR=Y:nan U:nan V:nan *:nan size=      34kB time=00:00:02.36 bitrate= 119.1kbits/s speed=4.72x    frame=  201 fps=201 q=46.0 PSNR=Y:nan U:nan V:nan *:nan size=      67kB time=00:00:05.26 bitrate= 104.1kbits/s speed=5.26x    frame=  297 fps=197 q=46.0 PSNR=Y:nan U:nan V:nan *:nan size=     111kB time=00:00:08.46 bitrate= 107.1kbits/s speed=5.62x    frame=  300 fps=182 q=46.0 LPSNR=Y:inf U:inf V:inf *:inf size=     124kB time=00:00:09.93 bitrate= 101.9kbits/s speed=6.02x    
video:124kB audio:0kB subtitle:0kB other streams:0kB global headers:0kB muxing overhead: 0.000000%
[libx264 @ 0x55c345c13c60] frame I:2     Avg QP:37.98  size:  8440  PSNR Mean Y:31.61 U:41.09 V:41.90 Avg:33.15 Global:33.09
[libx264 @ 0x55c345c13c60] frame P:76    Avg QP:39.93  size:   898  PSNR Mean Y:30.37 U:41.14 V:41.53 Avg:31.96 Global:31.94
[libx264 @ 0x55c345c13c60] frame B:222   Avg QP:45.51  size:   186  PSNR Mean Y:30.13 U:41.02 V:41.46 Avg:31.73 Global:31.72
[libx264 @ 0x55c345c13c60] consecutive B-frames:  1.3%  0.0%  0.0% 98.7%
[libx264 @ 0x55c345c13c60] mb I  I16..4: 24.7% 57.4% 17.8%
[libx264 @ 0x55c345c13c60] mb P  I16..4:  0.7%  0.8%  0.1%  P16..4: 33.0%  3.7%  0.8%  0.0%  0.0%    skip:60.9%
[libx264 @ 0x55c345c13c60] mb B  I16..4:  0.0%  0.0%  0.0%  B16..8: 17.9%  0.2%  0.0%  direct: 0.0%  skip:81.8%  L0:34.6% L1:65.1% BI: 0.2%
[libx264 @ 0x55c345c13c60] 8x8 transform intra:53.7% inter:87.3%
[libx264 @ 0x55c345c13c60] coded y,uvDC,uvAC intra: 42.7% 42.0% 4.5% inter: 1.3% 0.8% 0.0%
[libx264 @ 0x55c345c13c60] i16 v,h,dc,p: 25% 26% 22% 27%
[libx264 @ 0x55c345c13c60] i8 v,h,dc,ddl,ddr,vr,hd,vl,hu: 11% 15% 30%  5% 11%  7%  9%  7%  7%
[libx264 @ 0x55c345c13c60] i4 v,h,dc,ddl,ddr,vr,hd,vl,hu: 18% 20% 19%  4% 14% 10%  7%  5%  4%
[libx264 @ 0x55c345c13c60] i8c dc,h,v,p: 75%  9% 12%  4%
[libx264 @ 0x55c345c13c60] Weighted P-Frames: Y:0.0% UV:0.0%
[libx264 @ 0x55c345c13c60] ref P L0: 61.9% 12.6% 19.8%  5.8%
[libx264 @ 0x55c345c13c60] ref B L0: 75.6% 20.4%  4.0%
[libx264 @ 0x55c345c13c60] ref B L1: 76.6% 23.4%
[libx264 @ 0x55c345c13c60] PSNR Mean Y:30.203 U:41.052 V:41.484 Avg:31.797 Global:31.780 kb/s:101.22
